<svg width="36" height="36" viewBox="0 0 36 36" fill="none" xmlns="http://www.w3.org/2000/svg">
<rect width="36" height="36" rx="18" fill="#F7F3EE"/>
<path d="M8 12H9.93032C10.6836 12 11.3271 12.6 11.4735 13.4293L12.7866 21.0702C12.9278 21.8996 13.5765 22.4995 14.3298 22.4995L23.2295 22.5C23.9828 22.5 24.6263 21.9 24.7727 21.0707L25.9707 14.1004C26.159 13.0122 25.4162 12.0005 24.4275 12.0005H15" stroke="#F47920" stroke-width="2" stroke-linecap="round" stroke-linejoin="round"/>
<path d="M22.3647 29C23.4693 29 24.3647 28.1046 24.3647 27C24.3647 25.8954 23.4693 25 22.3647 25C21.2602 25 20.3647 25.8954 20.3647 27C20.3647 28.1046 21.2602 29 22.3647 29Z" fill="#F47920"/>
<path d="M15 29C16.1046 29 17 28.1046 17 27C17 25.8954 16.1046 25 15 25C13.8954 25 13 25.8954 13 27C13 28.1046 13.8954 29 15 29Z" fill="#F47920"/>
</svg>
